<svg width="162" height="48" viewBox="0 0 162 48" fill="none" xmlns="http://www.w3.org/2000/svg">
<path fill-rule="evenodd" clip-rule="evenodd" d="M17.1946 3.11525C16.4478 3.31625 15.9396 3.74325 15.6095 4.44693L15.4309 4.82778L15.3885 9.51895L15.1206 9.69619C12.4659 11.453 10.521 15.1337 10.521 18.4008C10.521 18.7428 10.4996 18.8087 10.3665 18.8778C9.81575 19.1635 9.2727 19.834 9.03709 20.5193C8.85127 21.0596 8.84784 23.1076 9.03174 23.7035C9.25533 24.4277 9.79858 25.06 10.4402 25.3426C10.6169 25.4204 10.8836 25.5883 11.033 25.7157C11.4873 26.1031 12.1959 26.2452 12.7272 26.0553L12.9762 25.9663L13.1217 26.5562C13.7463 29.0873 15.7168 30.7022 18.3795 30.8652C18.7784 30.8896 19.1048 30.9231 19.1048 30.9397C19.1048 30.9562 18.9791 31.2552 18.8255 31.6039L18.5463 32.2381L17.6067 32.519C15.1364 33.2573 13.8994 33.9606 13.0077 35.1334C12.3041 36.0589 12.136 36.5899 11.6565 39.4C11.3166 41.3918 11.3193 41.472 11.7286 41.5747C11.9847 41.639 11.9976 41.6058 12.1996 40.3653C12.5194 38.4004 12.7756 37.105 12.9211 36.716C13.4347 35.3434 14.4736 34.4163 16.2893 33.7101C17.1871 33.3609 18.2233 33.0175 18.3788 33.0175C18.4289 33.0175 18.7634 33.4581 19.1221 33.9965C19.537 34.6193 20.0087 35.2194 20.4181 35.6455C21.2212 36.4811 21.2689 36.489 21.8921 35.8905C22.1345 35.6578 22.3427 35.4801 22.3547 35.4956C22.432 35.5959 22.6069 36.1791 22.6069 36.3368C22.6069 36.5068 22.1229 39.0281 21.5719 41.7279C21.4613 42.2696 21.3709 42.7774 21.3709 42.8564C21.3709 43.0131 23.634 45.1463 23.8773 45.241C24.1226 45.3366 24.152 45.241 25.4231 44.1416C26.2585 43.3031 26.5898 42.9256 26.5898 42.8119C26.5898 42.7246 26.4374 41.8989 26.2512 40.9771C25.3384 36.4588 25.3268 36.3875 25.4492 36.0061C25.628 35.4489 25.6269 35.449 26.093 35.9024C26.7003 36.4929 26.7346 36.4854 27.6199 35.5704C28.1264 35.0468 28.5145 34.5574 28.9246 33.9249C29.269 33.3937 29.5541 33.0231 29.62 33.0211C29.7692 33.0163 31.355 33.5632 32.0748 33.8675C33.4349 34.4427 34.3021 35.1669 34.8126 36.1537C35.21 36.9217 35.2499 37.0966 35.8564 40.731C35.9247 41.1399 36.0135 41.5075 36.0539 41.5479C36.1669 41.6608 36.5407 41.4788 36.5887 41.2874C36.6264 41.1371 36.2763 38.8974 35.9954 37.4915C35.461 34.8177 33.7241 33.3802 29.7624 32.333C29.4817 32.2588 29.4555 32.2293 29.2284 31.7308C28.8292 30.8549 28.8008 30.9168 29.6237 30.867C30.9754 30.785 31.9372 30.4494 32.7995 29.7589C33.0612 29.5494 33.3438 29.3779 33.4275 29.3779C33.5112 29.3779 33.7915 29.3125 34.0505 29.2327C35.5755 28.7622 36.5624 27.7186 36.868 26.2533C36.9935 25.6515 37.0838 25.4989 37.3543 25.431C38.0993 25.244 38.8295 24.4359 39.0574 23.5464C39.2508 22.7915 39.1726 20.8163 38.9283 20.2842C38.6961 19.7787 38.3391 19.3371 37.9178 19.0344L37.5947 18.8023L37.545 18.0985C37.3085 14.7455 35.8332 11.9018 33.3195 9.95371C32.9984 9.70484 32.7131 9.46951 32.6853 9.43071C32.6576 9.39191 32.6344 8.35194 32.6338 7.11977C32.633 5.33355 32.6125 4.82181 32.5325 4.59533C32.278 3.87366 31.6538 3.31261 30.8844 3.11374C30.2939 2.96115 17.7623 2.96252 17.1946 3.11525ZM23.4944 5.4062L23.2936 5.60693V12.4222L23.4622 12.5908C23.5685 12.6971 23.7092 12.7594 23.843 12.7594C23.9768 12.7594 24.1175 12.6971 24.2238 12.5908L24.3924 12.4222V5.60693L24.1916 5.4062C24.0812 5.29578 23.9244 5.20548 23.843 5.20548C23.7616 5.20548 23.6048 5.29578 23.4944 5.4062ZM25.4961 6.82853C25.2766 7.10761 25.2745 11.0689 25.4938 11.3043C25.7728 11.6039 26.3156 11.4414 26.4195 11.0271C26.4411 10.9412 26.4496 9.97967 26.4384 8.8904L26.4181 6.90998L26.256 6.77874C26.0161 6.58461 25.6701 6.60727 25.4961 6.82853ZM21.5926 6.96821C21.3424 7.06888 21.3022 7.35758 21.3022 9.05081V10.7055L21.4708 10.874C21.7414 11.1447 22.13 11.0927 22.3005 10.7629C22.4469 10.4797 22.4469 7.4851 22.3005 7.2019C22.1674 6.94445 21.884 6.85099 21.5926 6.96821ZM27.5793 7.81308C27.3288 7.91444 27.2632 8.21336 27.288 9.14084C27.3145 10.1367 27.3851 10.2872 27.8259 10.2872C28.2627 10.2872 28.3371 10.1334 28.364 9.17525C28.3997 7.89953 28.2043 7.56037 27.5793 7.81308ZM19.6446 8.15218C19.4018 8.34858 19.3585 9.60541 19.5847 9.89287C19.7645 10.1216 20.1069 10.1471 20.3504 9.94986C20.5197 9.81273 20.6246 8.88971 20.5187 8.46793C20.4172 8.06304 19.9592 7.89761 19.6446 8.15218ZM14.7588 11.3002C12.9889 12.8339 11.7555 15.2434 11.5114 17.6438L11.4651 18.099L11.8555 17.9996C12.2301 17.9041 12.6117 17.9314 13.0027 18.0814C13.093 18.1161 13.1498 18.0214 13.2916 17.5997C13.7415 16.2613 14.6801 15.1534 15.8628 14.5645L16.3634 14.3152L16.0905 14.0351C15.5484 13.4788 15.4416 13.147 15.4089 11.9181C15.3931 11.3233 15.3607 10.8366 15.3369 10.8367C15.3131 10.8367 15.0529 11.0453 14.7588 11.3002ZM32.6327 11.8838C32.6326 13.0862 32.4974 13.5207 31.9612 14.0419L31.691 14.3045L32.162 14.5355C33.2724 15.0801 34.303 16.336 34.6929 17.6196C34.7758 17.8925 34.859 18.1157 34.8778 18.1157C34.8967 18.1157 35.0791 18.0672 35.2832 18.0079C35.6392 17.9044 36.1188 17.9397 36.5373 18.1004C36.6172 18.131 36.6257 18.0662 36.5859 17.7318C36.2741 15.1116 35.1096 12.8058 33.3246 11.2741C32.6122 10.6627 32.6328 10.6445 32.6327 11.8838ZM16.9979 14.9227C15.42 15.2657 14.064 16.7771 13.7584 18.5334C13.6311 19.2657 13.6512 25.7306 13.7828 26.3563C14.1602 28.1507 15.4874 29.5095 17.388 30.0476C17.745 30.1487 27.4825 30.2768 27.4825 30.1804C27.4825 30.164 27.4362 30.0191 27.3795 29.8586C27.0785 29.0053 27.4811 28.2133 28.3236 28.0015C28.5266 27.9505 28.9834 27.9299 29.5338 27.9471C30.4998 27.9772 30.8845 28.1215 31.0671 28.5223C31.1547 28.7144 31.8867 28.7614 32.6406 28.6235C33.2163 28.5181 33.756 27.7785 34.1197 26.5967C34.3398 25.8817 34.3114 18.7013 34.0857 17.9784C33.5862 16.3786 32.4204 15.1916 31.0534 14.8909C30.8784 14.8523 29.5377 14.8221 27.9632 14.8212L25.1821 14.8195L23.7528 15.8567C22.2073 16.9783 22.0096 17.0691 21.5888 16.8514C21.2269 16.6644 21.0962 16.308 21.0962 15.509V14.8195L19.2593 14.8249C17.9968 14.8287 17.2896 14.8593 16.9979 14.9227ZM17.8813 18.6309C15.4399 19.3158 14.6268 22.5778 16.4444 24.3954C17.1374 25.0883 17.8703 25.3949 18.8336 25.3949C20.5891 25.3949 21.8533 24.3138 22.2277 22.4924L22.2668 22.3023L25.6508 22.339L25.7381 22.7674C26.3199 25.6206 30.1834 26.3494 31.8403 23.9185C33.6178 21.3108 31.2125 17.8197 28.1923 18.6238C27.002 18.9408 25.9108 20.1082 25.711 21.2785L25.659 21.5837H22.233L22.181 21.2785C21.8631 19.4165 19.7404 18.1093 17.8813 18.6309ZM17.9755 19.3555C17.2319 19.6184 16.726 20.0886 16.3706 20.8471C16.0952 21.4347 16.0978 22.5709 16.3759 23.1371C17.3658 25.153 20.1797 25.2375 21.2187 23.2824C22.3809 21.0955 20.2728 18.543 17.9755 19.3555ZM28.4096 19.2752C27.075 19.6274 26.1465 21.0738 26.383 22.4321C26.764 24.6199 29.3779 25.4657 30.9377 23.9059C32.0179 22.8257 31.9858 20.8875 30.8715 19.9066C30.2266 19.3389 29.1827 19.0712 28.4096 19.2752ZM18.7614 20.8742C18.0516 21.3502 18.0245 22.7244 18.7149 23.2277C18.9831 23.4233 19.5714 23.4234 19.8332 23.2279C20.4703 22.7522 20.4791 21.3699 19.848 20.909C19.5559 20.6955 19.0519 20.6794 18.7614 20.8742ZM28.2595 20.8258C27.1563 21.3056 27.5681 23.4941 28.7408 23.3848C29.402 23.3232 29.7143 22.8996 29.7143 22.0644C29.7143 21.0287 29.0646 20.4756 28.2595 20.8258ZM21.4549 26.0512C21.126 26.2816 21.3365 26.6455 22.1147 27.1919C22.737 27.6288 23.8765 27.836 24.7522 27.6714C25.8985 27.456 27.0252 26.415 26.5058 26.0512C26.2916 25.9012 26.2794 25.9056 25.8818 26.2791C24.8156 27.2805 23.2267 27.288 22.1051 26.2968C21.6576 25.9013 21.6648 25.9041 21.4549 26.0512ZM34.9373 26.0367C34.9257 26.0803 34.8653 26.3447 34.803 26.6243C34.7407 26.9039 34.5688 27.3906 34.4211 27.7059C34.1119 28.3657 34.1448 28.3977 34.7376 28.0146C35.3366 27.6274 35.8165 26.9738 35.9675 26.3392C36.0106 26.1584 36.0013 26.1502 35.7475 26.1473C35.6018 26.1457 35.3646 26.1023 35.2204 26.0508C35.0277 25.982 34.9527 25.9783 34.9373 26.0367ZM31.2144 29.6899C31.1471 29.8653 31.2317 29.8762 31.545 29.7323L31.8431 29.5955L31.5491 29.5897C31.3435 29.5856 31.2428 29.6158 31.2144 29.6899ZM19.8166 31.1118C19.7529 31.2346 19.5677 31.6416 19.4048 32.0162L19.1089 32.6973L19.351 33.0959C19.8883 33.9803 20.9008 35.2797 21.1614 35.4191C21.2554 35.4694 21.4671 35.2919 22.2579 34.4996L23.238 33.5178L22.7293 33.2385C21.8757 32.7701 21.1081 32.1184 20.4668 31.3179C20.0751 30.829 19.9791 30.7985 19.8166 31.1118ZM27.4927 31.3223C26.8519 32.1275 25.9421 32.8913 25.1477 33.2909C24.9778 33.3764 24.8267 33.4572 24.8119 33.4704C24.7543 33.5222 26.6125 35.421 26.7207 35.421C26.9952 35.421 28.8645 33.015 28.8519 32.6779C28.8497 32.6192 28.6845 32.2003 28.4848 31.7471C28.0344 30.7252 27.9847 30.7039 27.4927 31.3223ZM15.4103 38.2503C15.3493 38.3113 15.3279 38.9689 15.3279 40.7836V43.2347L15.604 43.3451C15.7558 43.4059 15.9103 43.4556 15.9473 43.4556C16.073 43.4556 16.0347 38.5019 15.9077 38.3205C15.7914 38.1545 15.5414 38.1192 15.4103 38.2503ZM32.053 38.3205C31.961 38.4518 31.9461 38.8207 31.9461 40.9644C31.9461 43.7222 31.915 43.5565 32.3946 43.3561L32.6328 43.2566V40.7946C32.6328 38.9713 32.6114 38.3113 32.5504 38.2503C32.4193 38.1192 32.1693 38.1545 32.053 38.3205Z" fill="#346389"/>
<path d="M23.4944 5.4062L23.2936 5.60693V12.4222L23.4622 12.5908C23.5685 12.6971 23.7092 12.7594 23.843 12.7594C23.9768 12.7594 24.1175 12.6971 24.2238 12.5908L24.3924 12.4222V5.60693L24.1916 5.4062C24.0812 5.29578 23.9244 5.20548 23.843 5.20548C23.7616 5.20548 23.6048 5.29578 23.4944 5.4062Z" fill="#F3F0E7"/>
<path d="M25.4961 6.82853C25.2766 7.10761 25.2745 11.0689 25.4938 11.3043C25.7728 11.6039 26.3156 11.4414 26.4195 11.0271C26.4411 10.9412 26.4496 9.97967 26.4384 8.8904L26.4181 6.90998L26.256 6.77874C26.0161 6.58461 25.6701 6.60727 25.4961 6.82853Z" fill="#F3F0E7"/>
<path d="M27.5793 7.81308C27.3288 7.91444 27.2632 8.21336 27.288 9.14084C27.3145 10.1367 27.3851 10.2872 27.8259 10.2872C28.2627 10.2872 28.3371 10.1334 28.364 9.17525C28.3997 7.89953 28.2043 7.56037 27.5793 7.81308Z" fill="#F3F0E7"/>
<path d="M21.5926 6.96821C21.3424 7.06888 21.3022 7.35758 21.3022 9.05081V10.7055L21.4708 10.874C21.7414 11.1447 22.13 11.0927 22.3005 10.7629C22.4469 10.4797 22.4469 7.4851 22.3005 7.2019C22.1674 6.94445 21.884 6.85099 21.5926 6.96821Z" fill="#F3F0E7"/>
<path d="M19.6446 8.15218C19.4018 8.34858 19.3585 9.60541 19.5847 9.89287C19.7645 10.1216 20.1069 10.1471 20.3504 9.94986C20.5197 9.81273 20.6246 8.88971 20.5187 8.46793C20.4172 8.06304 19.9592 7.89761 19.6446 8.15218Z" fill="#F3F0E7"/>
<path fill-rule="evenodd" clip-rule="evenodd" d="M17.3911 3.08229C16.6723 3.22485 16.0176 3.71977 15.659 4.39179C15.5023 4.68529 15.4992 4.73192 15.4776 7.09395L15.4556 9.49746L14.9286 9.87515C12.3874 11.6963 10.7898 14.7208 10.5552 18.1552L10.5079 18.847L10.2727 18.9737C9.74879 19.2558 9.22367 19.9844 9.0349 20.6909C8.90422 21.1802 8.9128 23.0324 9.04843 23.6079C9.22635 24.3627 9.71521 24.976 10.3875 25.2875C10.5645 25.3695 10.8137 25.5248 10.9414 25.6326C11.4475 26.0604 12.2293 26.1978 12.9073 25.9783C13.0383 25.9359 13.0618 25.9532 13.0618 26.0922C13.0618 26.9372 13.7698 28.3078 14.6719 29.2094C15.7396 30.2763 16.6482 30.6795 18.3135 30.8251C18.7659 30.8646 19.141 30.9029 19.1472 30.91C19.1859 30.9549 18.566 32.2258 18.4843 32.269C18.429 32.2983 17.8275 32.4969 17.1477 32.7104C14.8573 33.4297 13.7977 34.0727 12.9515 35.2567C12.2968 36.1726 12.1747 36.5643 11.7177 39.2148C11.366 41.2542 11.2589 41.419 11.5854 41.5328C11.8605 41.6286 11.9816 41.578 12.2027 40.1937C12.6643 37.3018 12.8493 36.5706 13.2959 35.8725C14.0445 34.7021 14.9644 34.1189 17.37 33.2894C18.5089 32.8967 18.4161 32.8627 19.1048 33.9254C19.4971 34.5307 19.9139 35.0616 20.3758 35.5442C21.2311 36.4376 21.2688 36.4447 21.8906 35.8284L22.3283 35.3946L22.482 35.734C22.5666 35.9207 22.6334 36.197 22.6305 36.3481C22.6256 36.5962 22.0745 39.4946 21.5796 41.8748C21.4737 42.384 21.4074 42.8557 21.4323 42.923C21.5007 43.1079 22.5972 44.2055 23.3298 44.869C23.6594 45.1677 23.9154 45.3784 23.9707 45.3784C24.0284 45.3784 24.2745 45.1808 24.5922 44.8974C25.2991 44.2668 26.3604 43.2117 26.4911 42.9632C26.5766 42.8009 26.5691 42.6948 26.4255 42.0361C26.3364 41.6271 26.2245 41.0761 26.1769 40.8117C26.1293 40.5473 26.0513 40.1611 26.0035 39.9533C25.9557 39.7456 25.8778 39.3593 25.8303 39.0949C25.7829 38.8305 25.6425 38.0956 25.5183 37.4618C25.2768 36.2285 25.2751 36.3154 25.5557 35.5977L25.6343 35.3968L26.0262 35.7788C26.5419 36.2814 26.65 36.3336 26.9043 36.2034C27.3075 35.9971 28.4475 34.6637 29.0864 33.6512C29.5656 32.8916 29.488 32.9066 30.722 33.3356C33.1216 34.1699 34.1645 34.8753 34.8203 36.1077C35.1688 36.7626 35.2618 37.0962 35.5191 38.6142C36.0775 41.9096 36.008 41.6464 36.2913 41.5386C36.6884 41.3876 36.6972 41.5109 36.0256 37.7558C35.5094 34.8691 33.962 33.5356 29.7851 32.3779L29.4438 32.2833L29.1538 31.6375C28.9943 31.2823 28.862 30.9743 28.8598 30.953C28.8577 30.9317 29.2344 30.8782 29.6971 30.8341C31.1029 30.7002 32.111 30.3282 32.8366 29.6759C33.0188 29.5119 33.2233 29.3779 33.2908 29.3779C33.8873 29.3779 35.1774 28.7899 35.7528 28.2557C36.3485 27.7028 36.8903 26.6334 36.8903 26.011C36.8903 25.7723 37.1713 25.4255 37.4139 25.3646C37.7384 25.2831 38.3224 24.8574 38.57 24.5218C38.9363 24.0253 39.0934 23.4487 39.1367 22.4421C39.2136 20.6522 38.8295 19.6878 37.7405 18.9368C37.6143 18.8498 37.5838 18.7223 37.5117 17.9782C37.1732 14.4897 35.6133 11.5966 33.1238 9.83971L32.6388 9.49746L32.6357 7.33155C32.6334 5.6298 32.6106 5.08043 32.5292 4.76783C32.3427 4.05193 31.8348 3.48443 31.122 3.19546L30.7443 3.04232L24.2207 3.03202C20.6327 3.02632 17.5593 3.04898 17.3911 3.08229ZM17.1968 3.84969C17.0727 3.88945 16.8356 4.04136 16.6698 4.18728C16.1286 4.66366 16.1445 4.51107 16.1666 9.01675L16.1863 12.9997L16.3757 13.291C16.8298 13.9897 17.1468 14.0633 19.7056 14.0637L21.7829 14.0641V15.0858C21.7829 16.4242 21.7655 16.4115 22.6836 15.7484C23.0758 15.4652 23.752 14.9781 24.1863 14.666L24.9761 14.0985L27.8259 14.0641C31.0345 14.0255 31.0482 14.0233 31.5396 13.4636C31.958 12.9871 31.9461 13.1215 31.9461 8.86897C31.9461 5.05983 31.9429 4.96767 31.8027 4.67794C31.627 4.31515 31.2132 3.94982 30.8571 3.8431C30.5003 3.73618 17.5314 3.74243 17.1968 3.84969ZM14.9422 11.0961C13.2009 12.5508 11.94 14.7588 11.5911 16.9643C11.3991 18.1778 11.3998 18.1361 11.5714 18.0848C11.9573 17.9691 12.5512 17.964 12.815 18.0743C13.1393 18.2098 13.1008 18.247 13.3345 17.5721C13.775 16.2999 14.7437 15.144 15.7905 14.6416C16.4461 14.3269 16.4269 14.3654 16.1004 14.0202C15.5829 13.4732 15.5023 13.2075 15.4779 11.9696C15.4661 11.3653 15.4315 10.8456 15.4012 10.8148C15.371 10.7839 15.1643 10.9105 14.9422 11.0961ZM32.6228 11.851C32.5953 13.0757 32.4243 13.6048 31.9103 14.0562C31.6064 14.3231 31.5862 14.2848 32.1875 14.5819C33.3022 15.1327 34.2883 16.3561 34.6939 17.6916C34.8185 18.1017 34.8666 18.1841 34.9584 18.1442C35.4091 17.9481 36.037 17.9494 36.4955 18.1473C36.6482 18.2131 36.6532 17.9818 36.5171 17.1519C36.1781 15.0841 35.2463 13.156 33.9276 11.7933C33.4888 11.3398 32.8054 10.7679 32.7025 10.7679C32.6721 10.7679 32.6362 11.2553 32.6228 11.851ZM16.9798 14.8939C15.5658 15.1736 14.2858 16.4899 13.8009 18.1632C13.5545 19.0134 13.5588 25.8386 13.8063 26.631C14.2964 28.2007 15.4798 29.4355 17.0103 29.9742L17.5597 30.1676L22.5554 30.1877C25.3031 30.1988 27.5501 30.1833 27.5488 30.1534C27.5474 30.1235 27.5022 30.0217 27.4482 29.9273C27.2111 29.5125 27.3586 28.6838 27.7316 28.335C28.0411 28.0455 28.2442 28.0045 29.3652 28.0045C30.535 28.0045 30.7215 28.0645 31.019 28.5366C31.1781 28.7892 31.3955 28.8141 32.336 28.6877C33.0914 28.5861 33.0786 28.593 33.4317 28.0981C34.297 26.8855 34.362 26.4524 34.3329 22.095C34.3099 18.652 34.3054 18.5491 34.1533 18.0489C33.7427 16.6989 32.9522 15.7105 31.8431 15.1604L31.225 14.8538L25.1425 14.8117L24.7888 15.0731C24.5942 15.2169 24.367 15.3809 24.2837 15.4376C24.2006 15.4942 23.7197 15.8393 23.2152 16.2045C22.1953 16.9427 22.0507 17.0047 21.695 16.856C21.2938 16.6884 21.204 16.4778 21.1649 15.6128L21.1305 14.8538L19.2078 14.8437C18.1502 14.838 17.1477 14.8606 16.9798 14.8939ZM18.0325 18.6289C16.646 18.9683 15.5748 20.2674 15.4829 21.721C15.2866 24.827 18.8899 26.5631 21.1636 24.458C21.6391 24.0178 22.0945 23.1948 22.1677 22.6437L22.2126 22.3047H25.6842L25.7321 22.6531C25.8535 23.536 26.691 24.6272 27.5625 25.038C31.0902 26.7012 34.1432 22.0632 31.2693 19.407C29.4028 17.6819 26.2592 18.7246 25.7548 21.2358L25.6781 21.618H22.2105L22.1641 21.3084C22.1385 21.138 21.997 20.7576 21.8496 20.463C21.1278 19.021 19.5426 18.2593 18.0325 18.6289ZM11.6873 18.8612C11.5554 18.9315 11.3556 19.1371 11.242 19.3194L11.036 19.6501V24.5466L11.2249 24.832C11.5838 25.3743 12.3155 25.5514 12.7762 25.2075L12.9556 25.0735L12.9619 22.0925C12.9654 20.4529 12.9547 19.0717 12.938 19.0231C12.8418 18.7421 12.093 18.6451 11.6873 18.8612ZM35.2332 18.8336C34.9714 18.9815 34.9799 18.8657 34.9914 22.1014L35.0019 25.0804L35.2352 25.2376C35.7766 25.6025 36.6358 25.28 36.8859 24.6179C37.0267 24.2454 36.979 19.7802 36.8308 19.4539C36.5672 18.8736 35.7346 18.5503 35.2332 18.8336ZM18.2545 19.2222C16.1838 19.7083 15.4097 22.3752 16.8946 23.9071C18.6094 25.6761 21.5949 24.4575 21.5883 21.9912C21.5835 20.2158 19.9173 18.8319 18.2545 19.2222ZM28.34 19.2652C25.5229 20.2734 25.6893 24.1448 28.5741 24.7123C30.3638 25.0644 32.0834 23.3233 31.7473 21.4993C31.449 19.88 29.7446 18.7625 28.34 19.2652ZM10.0557 20.1028C9.68472 20.6052 9.61351 20.9795 9.63968 22.2905C9.66151 23.382 9.67188 23.4566 9.85303 23.8256C10.0384 24.2031 10.2152 24.4189 10.2833 24.3508C10.3017 24.3323 10.3087 23.3004 10.2988 22.0577L10.2806 19.7982L10.0557 20.1028ZM37.7144 22.0892C37.7144 24.3243 37.717 24.3683 37.8475 24.2985C37.9207 24.2592 38.0829 24.0193 38.208 23.7652L38.4354 23.3031V22.1C38.4354 20.7844 38.334 20.3908 37.8873 19.971L37.7144 19.8086V22.0892ZM18.8018 20.8771C18.0624 21.3098 18.0338 22.8019 18.7569 23.2244C19.2185 23.4941 19.7465 23.3648 20.0962 22.8963C20.3044 22.6175 20.3044 21.5112 20.0962 21.2324C19.7345 20.7479 19.25 20.6149 18.8018 20.8771ZM28.3409 20.8222C27.3604 21.258 27.4741 23.1449 28.492 23.331C29.2194 23.464 29.7042 22.9534 29.6988 22.06C29.6929 21.086 29.0553 20.5047 28.3409 20.8222ZM34.8689 26.2482C34.8034 26.685 34.5318 27.4599 34.2834 27.9185C34.028 28.39 34.0413 28.406 34.4988 28.178C35.1961 27.8304 35.8676 26.9935 35.9737 26.3398L36.0135 26.0946L35.6107 26.0635C35.3891 26.0463 35.1423 26.0099 35.0621 25.9826C34.931 25.9379 34.9115 25.9647 34.8689 26.2482ZM21.4101 26.1209C21.2326 26.2984 21.2835 26.4335 21.6679 26.8058C22.8774 27.9773 24.9467 28.0338 26.1757 26.9289C26.637 26.5141 26.6986 26.3936 26.5588 26.1801C26.4035 25.943 26.2455 25.9718 25.9342 26.2937C24.9735 27.2872 23.1956 27.301 22.0809 26.3237C21.6993 25.9892 21.5784 25.9526 21.4101 26.1209ZM28.3997 28.828C27.9113 29.0251 27.9346 29.785 28.4355 29.9925C28.8148 30.1496 30.1149 30.0632 30.3234 29.8671C30.6586 29.5518 30.6158 29.0627 30.2357 28.8661C30.0074 28.748 28.6668 28.7202 28.3997 28.828ZM31.1965 29.6697C31.1078 29.9045 31.1674 29.9315 31.4803 29.7986C31.8703 29.633 31.8941 29.5152 31.5376 29.5152C31.3076 29.5152 31.2441 29.544 31.1965 29.6697ZM19.8998 30.8715C19.8454 30.9257 19.8331 30.952 19.3858 31.9825C19.0449 32.768 19.0446 32.6664 19.3897 33.2161C20.1818 34.4777 21.1206 35.5622 21.3197 35.4457C21.4595 35.3639 23.2501 33.4998 23.2173 33.4703C23.2026 33.4571 23.0516 33.3764 22.8816 33.2909C22.0841 32.8898 21.0379 32.0035 20.4308 31.2149C20.141 30.8385 20.015 30.757 19.8998 30.8715ZM27.6655 31.0767C26.759 32.1473 25.7789 32.9839 25.0217 33.3335C24.8663 33.4052 24.7385 33.4797 24.7375 33.4991C24.7365 33.5184 25.1834 33.9812 25.7307 34.5275L26.7257 35.5208L27.1108 35.1447C27.5857 34.6809 28.3808 33.6108 28.8791 32.7646C28.931 32.6765 28.1983 30.9551 28.0737 30.8725C27.9427 30.7858 27.8891 30.8126 27.6655 31.0767ZM21.0962 30.9479C21.0962 31.0538 22.2493 32.1173 22.6219 32.3552C23.8205 33.1202 24.1405 33.121 25.3306 32.3615C25.7226 32.1114 26.8645 31.057 26.8645 30.9452C26.8645 30.9141 25.5666 30.8887 23.9803 30.8887C22.3941 30.8887 21.0962 30.9153 21.0962 30.9479ZM23.4421 34.3614L22.8915 34.9499L23.2106 35.7987H24.769L25.0749 34.9403L24.5542 34.3566C24.2678 34.0355 24.0243 33.7729 24.0131 33.7729C24.0019 33.7729 23.7449 34.0377 23.4421 34.3614ZM22.9581 38.3888C22.7599 39.3815 22.5679 40.3272 22.5315 40.4904C22.3997 41.0802 22.1262 42.5231 22.1262 42.6286C22.1262 42.6879 22.5441 43.1532 23.0547 43.6625L23.9833 44.5887L25.8529 42.7059L25.8072 42.4112C25.782 42.2491 25.5447 41.004 25.2798 39.6443C25.0149 38.2846 24.7754 37.0485 24.7477 36.8974L24.6973 36.6227L23.3185 36.5839L22.9581 38.3888ZM15.4407 38.2944C15.3376 38.4083 15.3279 38.66 15.3442 40.8116L15.3622 43.2021L15.9257 43.4414L15.9459 43.4499V43.4483V40.88C15.9459 38.4094 15.9408 38.3073 15.8131 38.2389C15.629 38.1405 15.5724 38.1489 15.4407 38.2944ZM32.1226 38.2757C32.0285 38.37 32.0147 38.7054 32.0147 40.9155V43.4473L32.6328 43.2366V40.8101C32.6328 38.2577 32.6223 38.1679 32.3238 38.1679C32.2725 38.1679 32.182 38.2164 32.1226 38.2757Z" fill="#1E4264"/>
<path fill-rule="evenodd" clip-rule="evenodd" d="M16.9798 14.8939C15.5658 15.1736 14.2858 16.4899 13.8009 18.1632C13.5545 19.0134 13.5588 25.8386 13.8063 26.631C14.2964 28.2007 15.4798 29.4355 17.0103 29.9742L17.5597 30.1676L22.5554 30.1877C25.3031 30.1988 27.5501 30.1833 27.5488 30.1534C27.5474 30.1235 27.5022 30.0217 27.4482 29.9273C27.2111 29.5125 27.3586 28.6838 27.7316 28.335C28.0411 28.0455 28.2442 28.0045 29.3652 28.0045C30.535 28.0045 30.7215 28.0645 31.019 28.5366C31.1781 28.7892 31.3955 28.8141 32.336 28.6877C33.0914 28.5861 33.0786 28.593 33.4317 28.0981C34.297 26.8855 34.362 26.4524 34.3329 22.095C34.3099 18.652 34.3054 18.5491 34.1533 18.0489C33.7427 16.6989 32.9522 15.7105 31.8431 15.1604L31.225 14.8538L25.1425 14.8117L24.7888 15.0731C24.5942 15.2169 24.367 15.3809 24.2837 15.4376C24.2006 15.4942 23.7197 15.8393 23.2152 16.2045C22.1953 16.9427 22.0507 17.0047 21.695 16.856C21.2938 16.6884 21.204 16.4778 21.1649 15.6128L21.1305 14.8538L19.2078 14.8437C18.1502 14.838 17.1477 14.8606 16.9798 14.8939ZM15.4829 21.721C15.5748 20.2674 16.646 18.9683 18.0325 18.6289C19.5426 18.2593 21.1278 19.021 21.8496 20.463C21.997 20.7576 22.1385 21.138 22.1641 21.3084L22.2105 21.618H25.6781L25.7548 21.2358C26.2592 18.7246 29.4028 17.6819 31.2693 19.407C34.1432 22.0632 31.0902 26.7012 27.5625 25.038C26.691 24.6272 25.8535 23.536 25.7321 22.6531L25.6842 22.3047H22.2126L22.1677 22.6437C22.0945 23.1948 21.6391 24.0178 21.1636 24.458C18.8899 26.5631 15.2866 24.827 15.4829 21.721ZM21.6679 26.8058C21.2835 26.4335 21.2326 26.2984 21.4101 26.1209C21.5784 25.9526 21.6993 25.9892 22.0809 26.3237C23.1956 27.301 24.9735 27.2872 25.9342 26.2937C26.2455 25.9718 26.4035 25.943 26.5588 26.1801C26.6986 26.3936 26.637 26.5141 26.1757 26.9289C24.9467 28.0338 22.8774 27.9773 21.6679 26.8058Z" fill="#F3F0E7"/>
<path fill-rule="evenodd" clip-rule="evenodd" d="M18.2545 19.2222C16.1838 19.7083 15.4097 22.3752 16.8946 23.9071C18.6094 25.6761 21.5949 24.4575 21.5883 21.9912C21.5835 20.2158 19.9173 18.8319 18.2545 19.2222ZM18.7569 23.2244C18.0338 22.8019 18.0624 21.3098 18.8018 20.8771C19.25 20.6149 19.7345 20.7479 20.0962 21.2324C20.3044 21.5112 20.3044 22.6175 20.0962 22.8963C19.7465 23.3648 19.2185 23.4941 18.7569 23.2244Z" fill="#F3F0E7"/>
<path fill-rule="evenodd" clip-rule="evenodd" d="M28.34 19.2652C25.5229 20.2734 25.6893 24.1448 28.5741 24.7123C30.3638 25.0644 32.0834 23.3233 31.7473 21.4993C31.449 19.88 29.7446 18.7625 28.34 19.2652ZM28.492 23.331C27.4741 23.1449 27.3604 21.258 28.3409 20.8222C29.0553 20.5047 29.6929 21.086 29.6988 22.06C29.7042 22.9534 29.2194 23.464 28.492 23.331Z" fill="#F3F0E7"/>
<path d="M27.6655 31.0767C26.759 32.1473 25.7789 32.9839 25.0217 33.3335C24.8663 33.4052 24.7385 33.4797 24.7375 33.4991C24.7365 33.5184 25.1834 33.9812 25.7307 34.5275L26.7257 35.5208L27.1108 35.1447C27.5857 34.6809 28.3808 33.6108 28.8791 32.7646C28.931 32.6765 28.1983 30.9551 28.0737 30.8725C27.9427 30.7858 27.8891 30.8126 27.6655 31.0767Z" fill="#F3F0E7"/>
<path d="M19.8998 30.8715C19.8454 30.9257 19.8331 30.952 19.3858 31.9825C19.0449 32.768 19.0446 32.6664 19.3897 33.2161C20.1818 34.4777 21.1206 35.5622 21.3197 35.4457C21.4595 35.3639 23.2501 33.4998 23.2173 33.4703C23.2026 33.4571 23.0516 33.3764 22.8816 33.2909C22.0841 32.8898 21.0379 32.0035 20.4308 31.2149C20.141 30.8385 20.015 30.757 19.8998 30.8715Z" fill="#F3F0E7"/>
<path d="M12.2027 40.1937C11.9816 41.578 11.8605 41.6286 11.5854 41.5328C12.6305 42.1637 14.1874 42.8479 15.9257 43.4414L15.3622 43.2021L15.3442 40.8116C15.3279 38.66 15.3376 38.4083 15.4407 38.2944C15.5724 38.1489 15.629 38.1405 15.8131 38.2389C15.9408 38.3073 15.9459 38.4094 15.9459 40.88V43.4483C18.0574 44.1673 20.59 44.7378 23.3298 44.869C22.5972 44.2055 21.5007 43.1079 21.4323 42.923C21.4074 42.8557 21.4737 42.384 21.5796 41.8748C22.0745 39.4946 22.6256 36.5962 22.6305 36.3481C22.6334 36.197 22.5666 35.9207 22.482 35.734L22.3283 35.3946L21.8906 35.8284C21.2688 36.4447 21.2311 36.4376 20.3758 35.5442C19.9139 35.0616 19.4971 34.5307 19.1048 33.9254C18.4161 32.8627 18.5089 32.8967 17.37 33.2894C14.9644 34.1189 14.0445 34.7021 13.2959 35.8725C12.8493 36.5706 12.6643 37.3018 12.2027 40.1937Z" fill="#F3F0E7"/>
<path fill-rule="evenodd" clip-rule="evenodd" d="M26.4911 42.9632C26.3604 43.2117 25.2991 44.2668 24.5922 44.8974C28.3498 44.8852 32.4223 44.0006 36.2913 41.5386C36.008 41.6464 36.0775 41.9096 35.5191 38.6142C35.2618 37.0962 35.1688 36.7626 34.8203 36.1077C34.1645 34.8753 33.1216 34.1699 30.722 33.3356C29.488 32.9066 29.5656 32.8916 29.0864 33.6512C28.4475 34.6637 27.3075 35.9971 26.9043 36.2034C26.65 36.3336 26.5419 36.2814 26.0262 35.7788L25.6343 35.3968L25.5557 35.5977C25.2751 36.3154 25.2768 36.2285 25.5183 37.4618C25.6425 38.0956 25.7829 38.8305 25.8303 39.0949C25.8778 39.3593 25.9557 39.7456 26.0035 39.9533C26.0513 40.1611 26.1293 40.5473 26.1769 40.8117C26.2245 41.0761 26.3364 41.6271 26.4255 42.0361C26.5691 42.6948 26.5766 42.8009 26.4911 42.9632ZM32.0147 40.9155C32.0147 38.7054 32.0285 38.37 32.1226 38.2757C32.182 38.2164 32.2725 38.1679 32.3238 38.1679C32.6223 38.1679 32.6328 38.2577 32.6328 40.8101V43.2366L32.0147 43.4473V40.9155Z" fill="#F3F0E7"/>
<path d="M65.5391 7.57812L61.4375 19H60.1016L56 7.57812H57.3906L60.0625 15.1016C60.1719 15.4036 60.2682 15.6927 60.3516 15.9688C60.4401 16.2448 60.5182 16.5104 60.5859 16.7656C60.6536 17.0208 60.7135 17.2682 60.7656 17.5078C60.8177 17.2682 60.8776 17.0208 60.9453 16.7656C61.013 16.5052 61.0911 16.237 61.1797 15.9609C61.2682 15.6797 61.3672 15.3854 61.4766 15.0781L64.1328 7.57812H65.5391ZM74.2969 14.7031C74.2969 15.4062 74.2057 16.0339 74.0234 16.5859C73.8411 17.138 73.5781 17.6042 73.2344 17.9844C72.8906 18.3646 72.474 18.6562 71.9844 18.8594C71.5 19.0573 70.9505 19.1562 70.3359 19.1562C69.763 19.1562 69.237 19.0573 68.7578 18.8594C68.2839 18.6562 67.8724 18.3646 67.5234 17.9844C67.1797 17.6042 66.9115 17.138 66.7188 16.5859C66.5312 16.0339 66.4375 15.4062 66.4375 14.7031C66.4375 13.7656 66.5964 12.9688 66.9141 12.3125C67.2318 11.651 67.6849 11.1484 68.2734 10.8047C68.8672 10.4557 69.5729 10.2812 70.3906 10.2812C71.1719 10.2812 71.8542 10.4557 72.4375 10.8047C73.026 11.1536 73.4818 11.6589 73.8047 12.3203C74.1328 12.9766 74.2969 13.7708 74.2969 14.7031ZM67.7812 14.7031C67.7812 15.3906 67.8724 15.987 68.0547 16.4922C68.237 16.9974 68.5182 17.388 68.8984 17.6641C69.2786 17.9401 69.7682 18.0781 70.3672 18.0781C70.9609 18.0781 71.4479 17.9401 71.8281 17.6641C72.2135 17.388 72.4974 16.9974 72.6797 16.4922C72.862 15.987 72.9531 15.3906 72.9531 14.7031C72.9531 14.0208 72.862 13.4323 72.6797 12.9375C72.4974 12.4375 72.2161 12.0521 71.8359 11.7812C71.4557 11.5104 70.9635 11.375 70.3594 11.375C69.4688 11.375 68.8151 11.6693 68.3984 12.2578C67.987 12.8464 67.7812 13.6615 67.7812 14.7031ZM77.8359 10.4375V19H76.5391V10.4375H77.8359ZM77.2031 7.23438C77.4167 7.23438 77.599 7.30469 77.75 7.44531C77.9062 7.58073 77.9844 7.79427 77.9844 8.08594C77.9844 8.3724 77.9062 8.58594 77.75 8.72656C77.599 8.86719 77.4167 8.9375 77.2031 8.9375C76.9792 8.9375 76.7917 8.86719 76.6406 8.72656C76.4948 8.58594 76.4219 8.3724 76.4219 8.08594C76.4219 7.79427 76.4948 7.58073 76.6406 7.44531C76.7917 7.30469 76.9792 7.23438 77.2031 7.23438ZM84.0156 19.1562C83.2448 19.1562 82.5651 18.9974 81.9766 18.6797C81.388 18.362 80.9297 17.8776 80.6016 17.2266C80.2734 16.5755 80.1094 15.7552 80.1094 14.7656C80.1094 13.7292 80.2812 12.8828 80.625 12.2266C80.974 11.5651 81.4531 11.0755 82.0625 10.7578C82.6719 10.4401 83.3646 10.2812 84.1406 10.2812C84.5677 10.2812 84.9792 10.3255 85.375 10.4141C85.776 10.4974 86.1042 10.6042 86.3594 10.7344L85.9688 11.8203C85.7083 11.7161 85.4062 11.6224 85.0625 11.5391C84.724 11.4557 84.4062 11.4141 84.1094 11.4141C83.5156 11.4141 83.0208 11.5417 82.625 11.7969C82.2344 12.0521 81.9401 12.4271 81.7422 12.9219C81.5495 13.4167 81.4531 14.026 81.4531 14.75C81.4531 15.4427 81.5469 16.0339 81.7344 16.5234C81.9271 17.013 82.2109 17.388 82.5859 17.6484C82.9661 17.9036 83.4401 18.0312 84.0078 18.0312C84.4609 18.0312 84.8698 17.9844 85.2344 17.8906C85.599 17.7917 85.9297 17.6771 86.2266 17.5469V18.7031C85.9401 18.849 85.6198 18.9609 85.2656 19.0391C84.9167 19.1172 84.5 19.1562 84.0156 19.1562ZM86.9062 10.4375H88.2969L90.1875 15.4062C90.2969 15.6979 90.3984 15.9792 90.4922 16.25C90.5859 16.5156 90.6693 16.7708 90.7422 17.0156C90.8151 17.2604 90.8724 17.4974 90.9141 17.7266H90.9688C91.0417 17.4661 91.1458 17.125 91.2812 16.7031C91.4167 16.276 91.5625 15.8411 91.7188 15.3984L93.5078 10.4375H94.9062L91.1797 20.2578C90.9818 20.7839 90.75 21.2422 90.4844 21.6328C90.224 22.0234 89.9062 22.3229 89.5312 22.5312C89.1562 22.7448 88.7031 22.8516 88.1719 22.8516C87.9271 22.8516 87.7109 22.8359 87.5234 22.8047C87.3359 22.7786 87.1745 22.7474 87.0391 22.7109V21.6719C87.1536 21.6979 87.2917 21.7214 87.4531 21.7422C87.6198 21.763 87.7917 21.7734 87.9688 21.7734C88.2917 21.7734 88.5703 21.7109 88.8047 21.5859C89.0443 21.4661 89.25 21.2891 89.4219 21.0547C89.5938 20.8203 89.7422 20.5417 89.8672 20.2188L90.3359 19.0156L86.9062 10.4375ZM64.7266 41L63.3203 37.375H58.7422L57.3438 41H56L60.4688 29.5312H61.6641L66.1016 41H64.7266ZM62.9219 36.1953L61.5859 32.5938C61.5547 32.5 61.5026 32.3464 61.4297 32.1328C61.362 31.9193 61.2917 31.6979 61.2188 31.4688C61.1458 31.2396 61.0859 31.0547 61.0391 30.9141C60.987 31.1276 60.9297 31.3411 60.8672 31.5547C60.8099 31.763 60.7526 31.9583 60.6953 32.1406C60.638 32.3177 60.5885 32.4688 60.5469 32.5938L59.1875 36.1953H62.9219ZM73.0312 38.6562C73.0312 39.2031 72.8932 39.6641 72.6172 40.0391C72.3464 40.4089 71.9557 40.6875 71.4453 40.875C70.9401 41.0625 70.3359 41.1562 69.6328 41.1562C69.0339 41.1562 68.5156 41.1094 68.0781 41.0156C67.6406 40.9219 67.2578 40.7891 66.9297 40.6172V39.4219C67.2786 39.5938 67.6953 39.75 68.1797 39.8906C68.6641 40.0312 69.1589 40.1016 69.6641 40.1016C70.4036 40.1016 70.9401 39.9818 71.2734 39.7422C71.6068 39.5026 71.7734 39.1771 71.7734 38.7656C71.7734 38.5312 71.7057 38.3255 71.5703 38.1484C71.4401 37.9661 71.2188 37.7917 70.9062 37.625C70.5938 37.4531 70.1615 37.2656 69.6094 37.0625C69.0625 36.8542 68.5885 36.6484 68.1875 36.4453C67.7917 36.237 67.4844 35.9844 67.2656 35.6875C67.0521 35.3906 66.9453 35.0052 66.9453 34.5312C66.9453 33.8073 67.237 33.2526 67.8203 32.8672C68.4089 32.4766 69.1797 32.2812 70.1328 32.2812C70.6484 32.2812 71.1302 32.3333 71.5781 32.4375C72.0312 32.5365 72.4531 32.6719 72.8438 32.8438L72.4062 33.8828C72.0521 33.7318 71.6745 33.6042 71.2734 33.5C70.8724 33.3958 70.4635 33.3438 70.0469 33.3438C69.4479 33.3438 68.987 33.4427 68.6641 33.6406C68.3464 33.8385 68.1875 34.1094 68.1875 34.4531C68.1875 34.7188 68.2604 34.9375 68.4062 35.1094C68.5573 35.2812 68.7969 35.4427 69.125 35.5938C69.4531 35.7448 69.8854 35.9219 70.4219 36.125C70.9583 36.3229 71.4219 36.5286 71.8125 36.7422C72.2031 36.9505 72.5026 37.2057 72.7109 37.5078C72.9245 37.8047 73.0312 38.1875 73.0312 38.6562ZM80.6562 38.6562C80.6562 39.2031 80.5182 39.6641 80.2422 40.0391C79.9714 40.4089 79.5807 40.6875 79.0703 40.875C78.5651 41.0625 77.9609 41.1562 77.2578 41.1562C76.6589 41.1562 76.1406 41.1094 75.7031 41.0156C75.2656 40.9219 74.8828 40.7891 74.5547 40.6172V39.4219C74.9036 39.5938 75.3203 39.75 75.8047 39.8906C76.2891 40.0312 76.7839 40.1016 77.2891 40.1016C78.0286 40.1016 78.5651 39.9818 78.8984 39.7422C79.2318 39.5026 79.3984 39.1771 79.3984 38.7656C79.3984 38.5312 79.3307 38.3255 79.1953 38.1484C79.0651 37.9661 78.8438 37.7917 78.5312 37.625C78.2188 37.4531 77.7865 37.2656 77.2344 37.0625C76.6875 36.8542 76.2135 36.6484 75.8125 36.4453C75.4167 36.237 75.1094 35.9844 74.8906 35.6875C74.6771 35.3906 74.5703 35.0052 74.5703 34.5312C74.5703 33.8073 74.862 33.2526 75.4453 32.8672C76.0339 32.4766 76.8047 32.2812 77.7578 32.2812C78.2734 32.2812 78.7552 32.3333 79.2031 32.4375C79.6562 32.5365 80.0781 32.6719 80.4688 32.8438L80.0312 33.8828C79.6771 33.7318 79.2995 33.6042 78.8984 33.5C78.4974 33.3958 78.0885 33.3438 77.6719 33.3438C77.0729 33.3438 76.612 33.4427 76.2891 33.6406C75.9714 33.8385 75.8125 34.1094 75.8125 34.4531C75.8125 34.7188 75.8854 34.9375 76.0312 35.1094C76.1823 35.2812 76.4219 35.4427 76.75 35.5938C77.0781 35.7448 77.5104 35.9219 78.0469 36.125C78.5833 36.3229 79.0469 36.5286 79.4375 36.7422C79.8281 36.9505 80.1276 37.2057 80.3359 37.5078C80.5495 37.8047 80.6562 38.1875 80.6562 38.6562ZM84.0391 32.4375V41H82.7422V32.4375H84.0391ZM83.4062 29.2344C83.6198 29.2344 83.8021 29.3047 83.9531 29.4453C84.1094 29.5807 84.1875 29.7943 84.1875 30.0859C84.1875 30.3724 84.1094 30.5859 83.9531 30.7266C83.8021 30.8672 83.6198 30.9375 83.4062 30.9375C83.1823 30.9375 82.9948 30.8672 82.8438 30.7266C82.6979 30.5859 82.625 30.3724 82.625 30.0859C82.625 29.7943 82.6979 29.5807 82.8438 29.4453C82.9948 29.3047 83.1823 29.2344 83.4062 29.2344ZM92.3281 38.6562C92.3281 39.2031 92.1901 39.6641 91.9141 40.0391C91.6432 40.4089 91.2526 40.6875 90.7422 40.875C90.237 41.0625 89.6328 41.1562 88.9297 41.1562C88.3307 41.1562 87.8125 41.1094 87.375 41.0156C86.9375 40.9219 86.5547 40.7891 86.2266 40.6172V39.4219C86.5755 39.5938 86.9922 39.75 87.4766 39.8906C87.9609 40.0312 88.4557 40.1016 88.9609 40.1016C89.7005 40.1016 90.237 39.9818 90.5703 39.7422C90.9036 39.5026 91.0703 39.1771 91.0703 38.7656C91.0703 38.5312 91.0026 38.3255 90.8672 38.1484C90.737 37.9661 90.5156 37.7917 90.2031 37.625C89.8906 37.4531 89.4583 37.2656 88.9062 37.0625C88.3594 36.8542 87.8854 36.6484 87.4844 36.4453C87.0885 36.237 86.7812 35.9844 86.5625 35.6875C86.349 35.3906 86.2422 35.0052 86.2422 34.5312C86.2422 33.8073 86.5339 33.2526 87.1172 32.8672C87.7057 32.4766 88.4766 32.2812 89.4297 32.2812C89.9453 32.2812 90.4271 32.3333 90.875 32.4375C91.3281 32.5365 91.75 32.6719 92.1406 32.8438L91.7031 33.8828C91.349 33.7318 90.9714 33.6042 90.5703 33.5C90.1693 33.3958 89.7604 33.3438 89.3438 33.3438C88.7448 33.3438 88.2839 33.4427 87.9609 33.6406C87.6432 33.8385 87.4844 34.1094 87.4844 34.4531C87.4844 34.7188 87.5573 34.9375 87.7031 35.1094C87.8542 35.2812 88.0938 35.4427 88.4219 35.5938C88.75 35.7448 89.1823 35.9219 89.7188 36.125C90.2552 36.3229 90.7188 36.5286 91.1094 36.7422C91.5 36.9505 91.7995 37.2057 92.0078 37.5078C92.2214 37.8047 92.3281 38.1875 92.3281 38.6562ZM97.1797 40.0938C97.3932 40.0938 97.612 40.0755 97.8359 40.0391C98.0599 40.0026 98.2422 39.9583 98.3828 39.9062V40.9141C98.2318 40.9818 98.0208 41.0391 97.75 41.0859C97.4844 41.1328 97.224 41.1562 96.9688 41.1562C96.5156 41.1562 96.1042 41.0781 95.7344 40.9219C95.3646 40.7604 95.0677 40.4896 94.8438 40.1094C94.625 39.7292 94.5156 39.2031 94.5156 38.5312V33.4531H93.2969V32.8203L94.5234 32.3125L95.0391 30.4531H95.8203V32.4375H98.3281V33.4531H95.8203V38.4922C95.8203 39.0286 95.9427 39.4297 96.1875 39.6953C96.4375 39.9609 96.7682 40.0938 97.1797 40.0938ZM103.32 32.2969C104.341 32.2969 105.099 32.526 105.594 32.9844C106.089 33.4427 106.336 34.1745 106.336 35.1797V41H105.391L105.141 39.7344H105.078C104.839 40.0469 104.589 40.3099 104.328 40.5234C104.068 40.7318 103.766 40.8906 103.422 41C103.083 41.1042 102.667 41.1562 102.172 41.1562C101.651 41.1562 101.188 41.0651 100.781 40.8828C100.38 40.7005 100.062 40.4245 99.8281 40.0547C99.599 39.6849 99.4844 39.2161 99.4844 38.6484C99.4844 37.7943 99.8229 37.138 100.5 36.6797C101.177 36.2214 102.208 35.9714 103.594 35.9297L105.07 35.8672V35.3438C105.07 34.6042 104.911 34.0859 104.594 33.7891C104.276 33.4922 103.828 33.3438 103.25 33.3438C102.802 33.3438 102.375 33.4089 101.969 33.5391C101.562 33.6693 101.177 33.8229 100.812 34L100.414 33.0156C100.799 32.8177 101.242 32.6484 101.742 32.5078C102.242 32.3672 102.768 32.2969 103.32 32.2969ZM105.055 36.7812L103.75 36.8359C102.682 36.8776 101.93 37.0521 101.492 37.3594C101.055 37.6667 100.836 38.1016 100.836 38.6641C100.836 39.1536 100.984 39.5156 101.281 39.75C101.578 39.9844 101.971 40.1016 102.461 40.1016C103.221 40.1016 103.844 39.8906 104.328 39.4688C104.812 39.0469 105.055 38.4141 105.055 37.5703V36.7812ZM113.062 32.2812C114.078 32.2812 114.846 32.5312 115.367 33.0312C115.888 33.526 116.148 34.3229 116.148 35.4219V41H114.867V35.5078C114.867 34.7943 114.703 34.2604 114.375 33.9062C114.052 33.5521 113.555 33.375 112.883 33.375C111.935 33.375 111.268 33.6432 110.883 34.1797C110.497 34.7161 110.305 35.4948 110.305 36.5156V41H109.008V32.4375H110.055L110.25 33.6719H110.32C110.503 33.3698 110.734 33.1172 111.016 32.9141C111.297 32.7057 111.612 32.5495 111.961 32.4453C112.31 32.3359 112.677 32.2812 113.062 32.2812ZM121.586 40.0938C121.799 40.0938 122.018 40.0755 122.242 40.0391C122.466 40.0026 122.648 39.9583 122.789 39.9062V40.9141C122.638 40.9818 122.427 41.0391 122.156 41.0859C121.891 41.1328 121.63 41.1562 121.375 41.1562C120.922 41.1562 120.51 41.0781 120.141 40.9219C119.771 40.7604 119.474 40.4896 119.25 40.1094C119.031 39.7292 118.922 39.2031 118.922 38.5312V33.4531H117.703V32.8203L118.93 32.3125L119.445 30.4531H120.227V32.4375H122.734V33.4531H120.227V38.4922C120.227 39.0286 120.349 39.4297 120.594 39.6953C120.844 39.9609 121.174 40.0938 121.586 40.0938Z" fill="#1E4264"/>
</svg>
