<svg width="120" height="120" viewBox="0 0 120 120" fill="none" xmlns="http://www.w3.org/2000/svg">
<g clip-path="url(#clip0_9_358)">
<rect width="120" height="120" rx="60" fill="#D9E3E3"/>
<path fill-rule="evenodd" clip-rule="evenodd" d="M42.9866 16.1955C41.1196 16.698 39.849 17.7655 39.0238 19.5247L38.5773 20.4768L38.4712 32.2047L37.8015 32.6478C31.1647 37.0399 26.3025 46.2415 26.3025 54.4093C26.3025 55.2643 26.2491 55.4291 25.9162 55.6018C24.5394 56.3162 23.1818 57.9925 22.5927 59.7055C22.1282 61.0564 22.1196 66.1764 22.5793 67.6661C23.1383 69.4766 24.4964 71.0572 26.1006 71.7639C26.5421 71.9584 27.2089 72.3781 27.5825 72.6966C28.7183 73.6652 30.4896 74.0202 31.8179 73.5456L32.4406 73.3231L32.8043 74.7978C34.3657 81.1255 39.2921 85.1629 45.9488 85.5703C46.9461 85.6312 47.7619 85.715 47.7619 85.7566C47.7619 85.7979 47.4477 86.5453 47.0639 87.4172L46.3658 89.0027L44.0166 89.7048C37.8409 91.5506 34.7486 93.3087 32.5194 96.2408C30.7604 98.5546 30.3401 99.882 29.1413 106.907C28.2915 111.887 28.2982 112.087 29.3216 112.344C29.9617 112.505 29.994 112.422 30.4989 109.321C31.2986 104.408 31.9389 101.17 32.3029 100.197C33.5867 96.7658 36.1839 94.448 40.7232 92.6826C42.9679 91.8096 45.5583 90.9511 45.9471 90.9511C46.0723 90.9511 46.9085 92.0526 47.8053 93.3987C48.8424 94.9555 50.0218 96.456 51.0454 97.521C53.0529 99.61 53.1722 99.63 54.7304 98.1336C55.3362 97.5518 55.8567 97.1076 55.8868 97.1464C56.0801 97.3971 56.5173 98.855 56.5173 99.2493C56.5173 99.6742 55.3072 105.978 53.9297 112.727C53.6533 114.081 53.4272 115.351 53.4272 115.548C53.4272 115.94 59.0851 121.273 59.6933 121.51C60.3066 121.749 60.38 121.51 63.5578 118.761C65.6464 116.665 66.4745 115.721 66.4745 115.437C66.4745 115.219 66.0936 113.155 65.628 110.85C63.3459 99.5544 63.3171 99.3762 63.623 98.4225C64.07 97.0295 64.0673 97.0299 65.2326 98.1633C66.7507 99.6396 66.8366 99.6208 69.0496 97.3334C70.3161 96.0243 71.2862 94.801 72.3115 93.2196C73.1724 91.8915 73.8852 90.9651 74.05 90.96C74.4229 90.9481 78.3874 92.3152 80.1869 93.0761C83.5873 94.5141 85.7554 96.3246 87.0316 98.7916C88.0249 100.712 88.1247 101.149 89.6411 110.235C89.8117 111.257 90.0339 112.176 90.1348 112.277C90.4172 112.559 91.3517 112.104 91.4718 111.626C91.5661 111.25 90.6909 105.651 89.9885 102.136C88.6526 95.4516 84.3102 91.8579 74.4061 89.2399C73.7043 89.0544 73.6389 88.9807 73.071 87.7343C72.073 85.5445 72.0021 85.6994 74.0591 85.5748C77.4386 85.3698 79.8429 84.531 81.9988 82.8046C82.653 82.2808 83.3595 81.8521 83.5687 81.8521C83.778 81.8521 84.4788 81.6886 85.1262 81.489C88.9388 80.3128 91.4059 77.704 92.17 74.0407C92.4838 72.5361 92.7096 72.1546 93.3857 71.9848C95.2482 71.5173 97.0738 69.4972 97.6436 67.2734C98.127 65.3862 97.9315 60.4482 97.3206 59.1178C96.7404 57.8541 95.8477 56.75 94.7946 55.9934L93.9867 55.413L93.8626 53.6536C93.2713 45.2712 89.5829 38.1618 83.2987 33.2916C82.4961 32.6695 81.7826 32.0811 81.7133 31.9841C81.6439 31.8871 81.5861 29.2872 81.5845 26.2068C81.5825 21.7412 81.5311 20.4619 81.3313 19.8957C80.6949 18.0915 79.1345 16.6889 77.2111 16.1917C75.7347 15.8102 44.4058 15.8137 42.9866 16.1955ZM58.7359 21.9229L58.2341 22.4247V39.463L58.6556 39.8843C58.9211 40.15 59.2731 40.3057 59.6075 40.3057C59.9419 40.3057 60.2939 40.15 60.5594 39.8843L60.9809 39.463V22.4247L60.4791 21.9229C60.203 21.6468 59.8109 21.421 59.6075 21.421C59.4041 21.421 59.012 21.6468 58.7359 21.9229ZM63.7402 25.4787C63.1914 26.1764 63.1862 36.0797 63.7344 36.668C64.4321 37.4171 65.789 37.0109 66.0488 35.9751C66.1027 35.7604 66.124 33.3565 66.096 30.6333L66.0453 25.6823L65.64 25.3542C65.0402 24.8689 64.1753 24.9255 63.7402 25.4787ZM53.9815 25.8279C53.3561 26.0796 53.2555 26.8013 53.2555 31.0344V35.171L53.677 35.5923C54.3535 36.2691 55.3249 36.1391 55.7512 35.3147C56.1173 34.6067 56.1173 27.1201 55.7512 26.4121C55.4184 25.7685 54.7101 25.5348 53.9815 25.8279ZM68.9482 27.94C68.3219 28.1934 68.158 28.9408 68.2199 31.2595C68.2864 33.7491 68.4629 34.1253 69.5647 34.1253C70.6567 34.1253 70.8428 33.7407 70.9099 31.3455C70.9992 28.1562 70.5108 27.3083 68.9482 27.94ZM49.1114 28.7878C48.5044 29.2788 48.3962 32.4209 48.9617 33.1395C49.4114 33.7114 50.2672 33.7751 50.8759 33.282C51.2993 32.9392 51.5616 30.6316 51.2969 29.5772C51.043 28.565 49.8981 28.1514 49.1114 28.7878ZM36.8969 36.6579C32.4723 40.492 29.3887 46.5159 28.7785 52.5169L28.6628 53.6548L29.6388 53.4062C30.5753 53.1676 31.5291 53.2357 32.5068 53.6109C32.7326 53.6976 32.8744 53.4608 33.2289 52.4067C34.3539 49.0607 36.7003 46.2908 39.6571 44.8185L40.9084 44.1955L40.2264 43.4952C38.871 42.1042 38.604 41.2749 38.5223 38.2027C38.4828 36.7156 38.4016 35.4989 38.3422 35.4991C38.2827 35.4991 37.6322 36.0206 36.8969 36.6579ZM81.5818 38.1168C81.5816 41.1228 81.2436 42.2091 79.903 43.512L79.2274 44.1685L80.4049 44.746C83.1809 46.1076 85.7576 49.2473 86.7322 52.4563C86.9394 53.1386 87.1475 53.6967 87.1945 53.6967C87.2417 53.6967 87.6977 53.5753 88.2079 53.427C89.0979 53.1683 90.2969 53.2567 91.3432 53.6583C91.5429 53.7348 91.5644 53.5729 91.4648 52.7368C90.6854 46.1863 87.7741 40.4218 83.3116 36.5925C81.5304 35.064 81.582 35.0187 81.5818 38.1168ZM42.4947 45.7141C38.55 46.5717 35.1601 50.35 34.3961 54.7409C34.0776 56.5716 34.128 72.7339 34.4571 74.2982C35.4006 78.784 38.7184 82.181 43.47 83.5265C44.3624 83.7792 68.7063 84.0993 68.7063 83.8583C68.7063 83.8173 68.5904 83.4552 68.4488 83.0538C67.6962 80.9205 68.7027 78.9406 70.809 78.4111C71.3164 78.2836 72.4586 78.2322 73.8344 78.2751C76.2495 78.3503 77.2113 78.711 77.6678 79.7131C77.8866 80.1933 79.7167 80.3109 81.6015 79.966C83.0407 79.7027 84.39 77.8537 85.2992 74.8991C85.8495 73.1115 85.7786 55.1606 85.2143 53.3533C83.9655 49.3539 81.051 46.3863 77.6334 45.6345C77.196 45.5382 73.8444 45.4626 69.908 45.4604L62.9552 45.4561L59.3821 48.0492C55.5184 50.853 55.0241 51.0801 53.9719 50.5359C53.0674 50.0683 52.7405 49.1774 52.7405 47.1798V45.4561L48.1482 45.4697C44.9919 45.4791 43.224 45.5555 42.4947 45.7141ZM44.7033 54.9845C38.5998 56.697 36.5671 64.8517 41.111 69.3959C42.8434 71.1281 44.6757 71.8947 47.0839 71.8947C51.4727 71.8947 54.6334 69.1918 55.5693 64.6383L55.667 64.1631L64.127 64.255L64.3452 65.3257C65.7997 72.4588 75.4585 74.2809 79.6008 68.2036C84.0445 61.6842 78.0312 52.9566 70.4807 54.967C67.5051 55.7593 64.777 58.678 64.2776 61.6036L64.1475 62.3665H55.5826L55.4524 61.6036C54.6578 56.9485 49.3509 53.6806 44.7033 54.9845ZM44.9387 56.796C43.0798 57.4534 41.8151 58.6289 40.9265 60.5251C40.2379 61.9941 40.2444 64.8346 40.9397 66.25C43.4146 71.2899 50.4493 71.501 53.0467 66.6133C55.9522 61.146 50.6821 54.7649 44.9387 56.796ZM71.0239 56.5953C67.6876 57.4759 65.3662 61.092 65.9576 64.4876C66.9101 69.9571 73.4447 72.0715 77.3443 68.172C80.0448 65.4715 79.9644 60.626 77.1788 58.1738C75.5664 56.7545 72.9568 56.0853 71.0239 56.5953ZM46.9035 60.5929C45.1291 61.783 45.0613 65.2183 46.7873 66.4767C47.4579 66.9656 48.9284 66.9658 49.583 66.477C51.1757 65.288 51.1978 61.8321 49.6201 60.6797C48.8896 60.1462 47.6297 60.1058 46.9035 60.5929ZM70.6486 60.4718C67.8908 61.6714 68.9202 67.1426 71.8521 66.8695C73.505 66.7155 74.2857 65.6564 74.2857 63.5682C74.2857 60.979 72.6615 59.5963 70.6486 60.4718ZM53.6371 73.5354C52.815 74.1112 53.3413 75.0211 55.2868 76.387C56.8425 77.4794 59.6913 77.9974 61.8805 77.5858C64.7463 77.0473 67.5631 74.4448 66.2646 73.5354C65.7291 73.1603 65.6985 73.1713 64.7045 74.1051C62.0389 76.6087 58.0667 76.6274 55.2627 74.1493C54.1439 73.1606 54.1621 73.1675 53.6371 73.5354ZM87.3432 73.499C87.3144 73.608 87.1633 74.2692 87.0074 74.9681C86.8517 75.667 86.422 76.8839 86.0527 77.672C85.2797 79.3215 85.3619 79.4017 86.844 78.4437C88.3415 77.4758 89.5412 75.8418 89.9189 74.2553C90.0265 73.8032 90.0031 73.7828 89.3688 73.7756C89.0045 73.7715 88.4115 73.663 88.051 73.5344C87.5691 73.3624 87.3818 73.3531 87.3432 73.499ZM78.036 82.632C77.8678 83.0706 78.0793 83.0979 78.8626 82.7381L79.6077 82.3961L78.8727 82.3815C78.3587 82.3714 78.1071 82.4468 78.036 82.632ZM49.5415 86.187C49.3823 86.4939 48.9192 87.5113 48.5121 88.4478L47.7722 90.1507L48.3775 91.1471C49.7207 93.3582 52.2519 96.6065 52.9036 96.9552C53.1384 97.0809 53.6677 96.6371 55.6447 94.6564L58.095 92.2017L56.8233 91.5037C54.6892 90.3325 52.7702 88.7033 51.1669 86.702C50.1878 85.4798 49.9477 85.4036 49.5415 86.187ZM68.7317 86.713C67.1298 88.7261 64.8553 90.6357 62.8693 91.6347C62.4444 91.8484 62.0667 92.0503 62.0298 92.0835C61.8858 92.2129 66.5312 96.9598 66.8017 96.9598C67.4881 96.9598 72.1613 90.9449 72.1298 90.1021C72.1244 89.9553 71.7113 88.9081 71.2119 87.775C70.0861 85.2202 69.9618 85.167 68.7317 86.713ZM38.5258 104.033C38.3731 104.186 38.3197 105.83 38.3197 110.366V116.494L39.0099 116.77C39.3895 116.922 39.7757 117.046 39.8683 117.046C40.1824 117.046 40.0868 104.662 39.7692 104.209C39.4786 103.794 38.8535 103.705 38.5258 104.033ZM80.1325 104.209C79.9025 104.537 79.8652 105.459 79.8652 110.818C79.8652 117.713 79.7874 117.298 80.9866 116.798L81.582 116.549V110.394C81.582 105.836 81.5286 104.186 81.3759 104.033C81.0482 103.705 80.4231 103.794 80.1325 104.209Z" fill="#346389"/>
<path d="M58.7359 21.9229L58.2341 22.4247V39.463L58.6556 39.8843C58.9211 40.15 59.2731 40.3057 59.6075 40.3057C59.9419 40.3057 60.2939 40.15 60.5594 39.8843L60.9809 39.463V22.4247L60.4791 21.9229C60.203 21.6468 59.8109 21.421 59.6075 21.421C59.4041 21.421 59.012 21.6468 58.7359 21.9229Z" fill="#F3F0E7"/>
<path d="M63.7402 25.4787C63.1914 26.1764 63.1862 36.0797 63.7344 36.668C64.4321 37.4171 65.789 37.0109 66.0488 35.9751C66.1027 35.7604 66.124 33.3565 66.096 30.6333L66.0453 25.6823L65.64 25.3542C65.0402 24.8689 64.1753 24.9255 63.7402 25.4787Z" fill="#F3F0E7"/>
<path d="M68.9482 27.94C68.3219 28.1934 68.158 28.9408 68.2199 31.2595C68.2864 33.7491 68.4629 34.1253 69.5647 34.1253C70.6567 34.1253 70.8428 33.7407 70.9099 31.3455C70.9992 28.1562 70.5108 27.3083 68.9482 27.94Z" fill="#F3F0E7"/>
<path d="M53.9815 25.8279C53.3561 26.0796 53.2555 26.8013 53.2555 31.0344V35.171L53.677 35.5923C54.3535 36.2691 55.3249 36.1391 55.7512 35.3147C56.1173 34.6067 56.1173 27.1201 55.7512 26.4121C55.4184 25.7685 54.7101 25.5348 53.9815 25.8279Z" fill="#F3F0E7"/>
<path d="M49.1114 28.7878C48.5044 29.2788 48.3962 32.4209 48.9617 33.1395C49.4114 33.7114 50.2672 33.7751 50.8759 33.282C51.2993 32.9392 51.5616 30.6316 51.2969 29.5772C51.043 28.565 49.8981 28.1514 49.1114 28.7878Z" fill="#F3F0E7"/>
<path fill-rule="evenodd" clip-rule="evenodd" d="M43.4777 16.1131C41.6806 16.4695 40.0439 17.7068 39.1474 19.3868C38.7558 20.1206 38.7479 20.2371 38.694 26.1422L38.6391 32.151L37.3215 33.0952C30.9684 37.6481 26.9746 45.2092 26.388 53.7952L26.2697 55.5247L25.6817 55.8415C24.372 56.5467 23.0592 58.3683 22.5872 60.1347C22.2605 61.3579 22.282 65.9884 22.6211 67.4271C23.0659 69.3142 24.288 70.8473 25.9687 71.626C26.4113 71.831 27.0343 72.2193 27.3535 72.4889C28.6187 73.5583 30.5732 73.902 32.2682 73.3531C32.5957 73.247 32.6545 73.2903 32.6545 73.6377C32.6545 75.7503 34.4244 79.1768 36.6797 81.4308C39.3489 84.0981 41.6204 85.1061 45.7838 85.47C46.9147 85.5689 47.8525 85.6646 47.868 85.6824C47.9646 85.7947 46.4151 88.9719 46.2108 89.0798C46.0724 89.1531 44.5687 89.6496 42.8691 90.1833C37.1433 91.9817 34.4941 93.5891 32.3787 96.549C30.742 98.8389 30.4368 99.8181 29.2943 106.444C28.4151 111.543 28.1473 111.955 28.9634 112.239C29.6512 112.479 29.954 112.352 30.5066 108.892C31.6608 101.662 32.1233 99.8339 33.2397 98.0886C35.1113 95.1627 37.4109 93.7046 43.425 91.6309C46.2723 90.6491 46.0403 90.5641 47.7619 93.2208C48.7427 94.7342 49.7847 96.0614 50.9396 97.2678C53.0778 99.5014 53.1719 99.5191 54.7264 97.9784L55.8207 96.8937L56.2051 97.7423C56.4166 98.209 56.5836 98.8998 56.5762 99.2775C56.564 99.8978 55.1862 107.144 53.9489 113.094C53.6842 114.367 53.5185 115.546 53.5808 115.715C53.7518 116.177 56.4931 118.921 58.3244 120.58C59.1486 121.326 59.7885 121.853 59.9266 121.853C60.0711 121.853 60.6863 121.359 61.4806 120.651C63.2477 119.074 65.9009 116.437 66.2278 115.815C66.4416 115.409 66.4227 115.144 66.0639 113.498C65.841 112.475 65.5612 111.098 65.4422 110.437C65.3233 109.776 65.1282 108.81 65.0088 108.291C64.8893 107.771 64.6946 106.806 64.5758 106.145C64.4572 105.484 64.1063 103.646 63.7959 102.062C63.1921 98.9786 63.1878 99.1959 63.8893 97.4016L64.0856 96.8992L65.0654 97.8543C66.3547 99.1108 66.6249 99.2414 67.2608 98.9159C68.2689 98.4 71.1188 95.0666 72.7159 92.5353C73.9141 90.6364 73.7201 90.6738 76.8051 91.7465C82.8041 93.8322 85.4112 95.5957 87.0508 98.6766C87.9221 100.314 88.1545 101.148 88.7976 104.943C90.1937 113.181 90.02 112.523 90.7281 112.254C91.7211 111.876 91.7429 112.185 90.0639 102.797C88.7734 95.5802 84.9049 92.2464 74.4627 89.352L73.6095 89.1155L72.8845 87.501C72.4857 86.6131 72.1551 85.8431 72.1496 85.7899C72.1443 85.7367 73.0861 85.6029 74.2428 85.4927C77.7572 85.1578 80.2776 84.2279 82.0915 82.597C82.5471 82.1872 83.0582 81.8521 83.2271 81.8521C84.7183 81.8521 87.9436 80.382 89.382 79.0465C90.8711 77.6643 92.2258 74.9909 92.2258 73.4348C92.2258 72.8381 92.9281 71.9711 93.5349 71.8188C94.346 71.6152 95.8061 70.5508 96.425 69.7118C97.3407 68.4707 97.7335 67.0291 97.8417 64.5125C98.0341 60.0378 97.0738 57.627 94.3512 55.7493C94.0358 55.5318 93.9596 55.213 93.7791 53.3528C92.9331 44.6317 89.0333 37.3989 82.8094 33.0066L81.5969 32.151L81.5893 26.7362C81.5835 22.4818 81.5265 21.1084 81.3229 20.3269C80.8568 18.5372 79.5871 17.1184 77.8051 16.396L76.8609 16.0132L60.5517 15.9874C51.5817 15.9732 43.8983 16.0298 43.4777 16.1131ZM42.9919 18.0316C42.6817 18.131 42.0889 18.5107 41.6745 18.8756C40.3215 20.0665 40.3611 19.685 40.4166 30.9492L40.4657 40.9066L40.9392 41.6349C42.0745 43.3815 42.8669 43.5656 49.2641 43.5666L54.4572 43.5676V46.1219C54.4572 49.4679 54.4138 49.436 56.7091 47.7782C57.6895 47.0702 59.38 45.8525 60.4659 45.0722L62.4401 43.6535L69.5647 43.5676C77.5864 43.471 77.6205 43.4655 78.849 42.0663C79.8949 40.875 79.8652 41.2112 79.8652 30.5798C79.8652 21.0569 79.8573 20.8265 79.5067 20.1022C79.0676 19.1952 78.0331 18.2819 77.1428 18.0151C76.2507 17.7478 43.8285 17.7634 42.9919 18.0316ZM37.3554 36.1477C33.0023 39.7844 29.85 45.3043 28.9777 50.8182C28.4977 53.8519 28.4996 53.7477 28.9284 53.6193C29.8932 53.33 31.3781 53.3175 32.0375 53.593C32.8483 53.9319 32.752 54.025 33.3362 52.3375C34.4375 49.157 36.8591 46.2675 39.4762 45.0113C41.1153 44.2245 41.0672 44.3208 40.2511 43.4579C38.9573 42.0903 38.7558 41.4261 38.6949 38.3314C38.6652 36.8207 38.5788 35.5214 38.5031 35.4443C38.4274 35.3671 37.9108 35.6836 37.3554 36.1477ZM81.5571 38.0348C81.4882 41.0967 81.0607 42.4195 79.7758 43.5477C79.0159 44.215 78.9655 44.1192 80.4686 44.8621C83.2556 46.2391 85.7207 49.2976 86.7348 52.6364C87.0462 53.6615 87.1665 53.8675 87.3959 53.7678C88.5228 53.2776 90.0926 53.2807 91.2387 53.7755C91.6205 53.9401 91.633 53.3618 91.2928 51.287C90.4452 46.1176 88.1157 41.2974 84.8191 37.8906C83.7219 36.757 82.0135 35.327 81.7562 35.327C81.6802 35.327 81.5905 36.5456 81.5571 38.0348ZM42.4496 45.642C38.9144 46.3413 35.7146 49.6322 34.5022 53.8153C33.8862 55.9409 33.897 73.0037 34.5158 74.9849C35.741 78.909 38.6995 81.9961 42.5258 83.3429L43.8992 83.8264L56.3886 83.8767C63.2577 83.9043 68.8752 83.8657 68.872 83.7908C68.8685 83.716 68.7554 83.4616 68.6205 83.2255C68.0277 82.1886 68.3964 80.1167 69.329 79.245C70.1029 78.5212 70.6105 78.4185 73.4131 78.4185C76.3376 78.4185 76.8039 78.5685 77.5476 79.7488C77.9454 80.3803 78.4887 80.4426 80.84 80.1265C82.7284 79.8726 82.6965 79.8898 83.5792 78.6527C85.7425 75.621 85.9051 74.5384 85.8323 63.6448C85.7748 55.0373 85.7634 54.78 85.3832 53.5297C84.3567 50.1546 82.3804 47.6835 79.6077 46.3083L78.0626 45.542L62.8563 45.4365L61.972 46.0901C61.4856 46.4496 60.9174 46.8596 60.7093 47.0012C60.5014 47.1429 59.2992 48.0057 58.038 48.9187C55.4883 50.7641 55.1268 50.9191 54.2375 50.5474C53.2346 50.1284 53.01 49.6018 52.9122 47.4393L52.8263 45.542L48.0194 45.5165C45.3756 45.5025 42.8691 45.5589 42.4496 45.642ZM45.0812 54.9797C41.6149 55.8281 38.9369 59.0759 38.7072 62.7099C38.2166 70.4747 47.2247 74.8151 52.9089 69.5525C54.0977 68.4518 55.2363 66.3943 55.4191 65.0165L55.5316 64.1691H64.2105L64.3303 65.0401C64.6338 67.2473 66.7276 69.9753 68.9063 71.0025C77.7256 75.1604 85.3581 63.5653 78.1732 56.9248C73.507 52.6122 65.6481 55.2188 64.3871 61.4969L64.1954 62.4523H55.5263L55.4102 61.6782C55.3463 61.2523 54.9925 60.3014 54.6239 59.5649C52.8196 55.96 48.8565 54.0557 45.0812 54.9797ZM29.2182 55.5605C28.8886 55.7361 28.389 56.2501 28.1051 56.7057L27.59 57.5325V69.7738L28.0623 70.4874C28.9595 71.843 30.7889 72.2858 31.9405 71.426L32.3889 71.0911L32.4048 63.6386C32.4136 59.5396 32.3868 56.0867 32.3451 55.9651C32.1046 55.2626 30.2325 55.0202 29.2182 55.5605ZM88.0831 55.4913C87.4285 55.8611 87.4498 55.5716 87.4785 63.6608L87.5048 71.1082L88.0881 71.5014C89.4414 72.4137 91.5896 71.6073 92.2148 69.9521C92.5668 69.021 92.4475 57.8579 92.077 57.0422C91.4179 55.5914 89.3365 54.7831 88.0831 55.4913ZM45.6362 56.4628C40.4595 57.6781 38.5242 64.3453 42.2365 68.1751C46.5234 72.5977 53.9874 69.5511 53.9707 63.3852C53.9587 58.9468 49.7932 55.487 45.6362 56.4628ZM70.85 56.5703C63.8074 59.0909 64.2233 68.7693 71.4352 70.188C75.9096 71.0684 80.2085 66.7156 79.3684 62.1555C78.6224 58.1073 74.3615 55.3136 70.85 56.5703ZM25.1392 58.6644C24.2118 59.9202 24.0338 60.8561 24.0992 64.1336C24.1538 66.8624 24.1797 67.0489 24.6326 67.9713C25.0961 68.9152 25.538 69.4546 25.7081 69.2843C25.7543 69.2381 25.7718 66.6583 25.7469 63.5516L25.7016 57.9028L25.1392 58.6644ZM94.2859 63.6302C94.2859 69.218 94.2926 69.3281 94.6186 69.1535C94.8018 69.0555 95.2073 68.4556 95.5199 67.8202L96.0885 66.665V63.6574C96.0885 60.3683 95.8351 59.3843 94.7182 58.335L94.2859 57.9288V63.6302ZM47.0045 60.6001C45.156 61.6818 45.0846 65.4121 46.8924 66.4684C48.0462 67.1426 49.3662 66.8193 50.2405 65.6481C50.7611 64.9511 50.7611 62.1854 50.2405 61.4884C49.3362 60.277 48.125 59.9446 47.0045 60.6001ZM70.8522 60.4629C68.4009 61.5524 68.6852 66.2696 71.2301 66.7349C73.0485 67.0674 74.2605 65.7908 74.2469 63.5574C74.2322 61.1223 72.6382 59.6691 70.8522 60.4629ZM87.1722 74.0278C87.0086 75.1198 86.3295 77.0571 85.7085 78.2035C85.07 79.3825 85.1032 79.4225 86.2471 78.8523C87.9902 77.9835 89.6691 75.8912 89.9343 74.2568L90.0337 73.6439L89.0266 73.566C88.4728 73.5231 87.8557 73.4321 87.6551 73.3637C87.3274 73.252 87.2787 73.3191 87.1722 74.0278ZM53.5252 73.7095C53.0816 74.1533 53.2086 74.491 54.1697 75.4218C57.1936 78.3507 62.3668 78.492 65.4393 75.7295C66.5925 74.6927 66.7466 74.3912 66.3969 73.8575C66.0088 73.2649 65.6137 73.3368 64.8355 74.1416C62.4338 76.6253 57.9889 76.6598 55.2021 74.2166C54.2481 73.3804 53.946 73.2889 53.5252 73.7095ZM70.9994 80.4773C69.7782 80.97 69.8366 82.8698 71.0888 83.3886C72.037 83.7812 75.2873 83.5654 75.8085 83.0751C76.6466 82.2869 76.5395 81.0641 75.5893 80.5727C75.0185 80.2774 71.667 80.2077 70.9994 80.4773ZM77.9914 82.5817C77.7696 83.1685 77.9186 83.2362 78.7007 82.904C79.6758 82.4899 79.7352 82.1954 78.8439 82.1954C78.269 82.1954 78.1102 82.2674 77.9914 82.5817ZM49.7496 85.5861C49.6134 85.7215 49.5829 85.7875 48.4646 88.3637C47.6122 90.3273 47.6115 90.0734 48.4742 91.4476C50.4545 94.6016 52.8014 97.3128 53.2993 97.0216C53.6486 96.8172 58.1253 92.1569 58.0432 92.0831C58.0065 92.0501 57.6289 91.8484 57.204 91.6347C55.2102 90.6317 52.5947 88.4162 51.0769 86.4445C50.3525 85.5035 50.0376 85.2999 49.7496 85.5861ZM69.1638 86.0991C66.8975 88.7755 64.4474 90.8671 62.5541 91.7411C62.1658 91.9204 61.8461 92.1066 61.8437 92.155C61.8413 92.2035 62.9586 93.3604 64.3267 94.7261L66.8143 97.2093L67.777 96.269C68.9643 95.1095 70.952 92.4344 72.1978 90.3189C72.3276 90.0985 70.4958 85.795 70.1842 85.5887C69.8569 85.3718 69.7228 85.4388 69.1638 86.0991ZM52.7405 85.777C52.7405 86.0417 55.6233 88.7007 56.5548 89.2952C59.5514 91.2079 60.3512 91.2098 63.3265 89.3112C64.3066 88.6859 67.1612 86.05 67.1612 85.7703C67.1612 85.6925 63.9165 85.629 59.9508 85.629C55.9851 85.629 52.7405 85.6956 52.7405 85.777ZM58.6053 94.3108L57.2288 95.7821L58.0265 97.9041H61.9225L62.6874 95.7581L61.3855 94.2988C60.6695 93.4962 60.0607 92.8395 60.0327 92.8395C60.0048 92.8395 59.3623 93.5015 58.6053 94.3108ZM57.3953 104.379C56.8998 106.861 56.4198 109.225 56.3287 109.633C55.9992 111.108 55.3156 114.715 55.3156 114.979C55.3156 115.127 56.3603 116.29 57.6368 117.564L59.9582 119.879L64.6323 115.172L64.5179 114.435C64.4551 114.03 63.8618 110.917 63.1995 107.518C62.5371 104.119 61.9385 101.029 61.8692 100.651L61.7433 99.9642L58.2962 99.867L57.3953 104.379ZM38.6016 104.143C38.344 104.428 38.3197 105.057 38.3604 110.436L38.4056 116.413L39.8144 117.011L39.8648 117.032V117.028V110.607C39.8648 104.431 39.8519 104.175 39.5328 104.005C39.0725 103.758 38.9309 103.78 38.6016 104.143ZM80.3066 104.097C80.0712 104.332 80.0369 105.171 80.0369 110.696V117.026L81.582 116.499V110.433C81.582 104.052 81.5557 103.827 80.8094 103.827C80.6813 103.827 80.4551 103.948 80.3066 104.097Z" fill="#1E4264"/>
<path fill-rule="evenodd" clip-rule="evenodd" d="M42.4496 45.642C38.9144 46.3413 35.7146 49.6322 34.5022 53.8153C33.8862 55.9409 33.897 73.0037 34.5158 74.9849C35.741 78.909 38.6995 81.9961 42.5258 83.3429L43.8992 83.8264L56.3886 83.8767C63.2577 83.9043 68.8752 83.8657 68.872 83.7908C68.8685 83.716 68.7554 83.4616 68.6205 83.2255C68.0277 82.1886 68.3964 80.1167 69.329 79.245C70.1029 78.5212 70.6105 78.4185 73.4131 78.4185C76.3376 78.4185 76.8039 78.5685 77.5476 79.7488C77.9454 80.3803 78.4887 80.4426 80.84 80.1265C82.7284 79.8726 82.6965 79.8898 83.5792 78.6527C85.7425 75.621 85.9051 74.5384 85.8323 63.6448C85.7748 55.0373 85.7634 54.78 85.3832 53.5297C84.3567 50.1546 82.3804 47.6835 79.6077 46.3083L78.0626 45.542L62.8563 45.4365L61.972 46.0901C61.4856 46.4496 60.9174 46.8596 60.7093 47.0012C60.5014 47.1429 59.2992 48.0057 58.038 48.9187C55.4883 50.7641 55.1268 50.9191 54.2375 50.5474C53.2346 50.1284 53.01 49.6018 52.9122 47.4393L52.8263 45.542L48.0194 45.5165C45.3756 45.5025 42.8691 45.5589 42.4496 45.642ZM38.7072 62.7099C38.9369 59.0759 41.6149 55.8281 45.0812 54.9797C48.8565 54.0557 52.8196 55.96 54.6239 59.5649C54.9925 60.3014 55.3463 61.2523 55.4102 61.6782L55.5263 62.4523H64.1954L64.3871 61.4969C65.6481 55.2188 73.507 52.6122 78.1732 56.9248C85.3581 63.5653 77.7256 75.1604 68.9063 71.0025C66.7276 69.9753 64.6338 67.2473 64.3303 65.0401L64.2105 64.1691H55.5316L55.4191 65.0165C55.2363 66.3943 54.0977 68.4518 52.9089 69.5525C47.2247 74.8151 38.2166 70.4747 38.7072 62.7099ZM54.1697 75.4218C53.2086 74.491 53.0816 74.1533 53.5252 73.7095C53.946 73.2889 54.2481 73.3804 55.2021 74.2166C57.9889 76.6598 62.4338 76.6253 64.8355 74.1416C65.6137 73.3368 66.0088 73.2649 66.3969 73.8575C66.7466 74.3912 66.5925 74.6927 65.4393 75.7295C62.3668 78.492 57.1936 78.3507 54.1697 75.4218Z" fill="#F3F0E7"/>
<path fill-rule="evenodd" clip-rule="evenodd" d="M45.6362 56.4628C40.4595 57.6781 38.5242 64.3453 42.2365 68.1751C46.5234 72.5977 53.9874 69.5511 53.9707 63.3852C53.9587 58.9468 49.7932 55.487 45.6362 56.4628ZM46.8924 66.4684C45.0846 65.4121 45.156 61.6818 47.0045 60.6001C48.125 59.9446 49.3362 60.277 50.2405 61.4884C50.7611 62.1854 50.7611 64.9511 50.2405 65.6481C49.3662 66.8193 48.0462 67.1426 46.8924 66.4684Z" fill="#F3F0E7"/>
<path fill-rule="evenodd" clip-rule="evenodd" d="M70.85 56.5703C63.8074 59.0909 64.2233 68.7693 71.4352 70.188C75.9096 71.0684 80.2085 66.7156 79.3684 62.1555C78.6224 58.1073 74.3615 55.3136 70.85 56.5703ZM71.2301 66.7349C68.6852 66.2696 68.4009 61.5524 70.8522 60.4629C72.6382 59.6691 74.2322 61.1223 74.2469 63.5574C74.2605 65.7908 73.0485 67.0674 71.2301 66.7349Z" fill="#F3F0E7"/>
<path d="M69.1638 86.0991C66.8975 88.7755 64.4474 90.8671 62.5541 91.7411C62.1658 91.9204 61.8461 92.1066 61.8437 92.155C61.8413 92.2035 62.9586 93.3604 64.3267 94.7261L66.8143 97.2093L67.777 96.269C68.9643 95.1095 70.952 92.4344 72.1978 90.3189C72.3276 90.0985 70.4958 85.795 70.1842 85.5887C69.8569 85.3718 69.7228 85.4388 69.1638 86.0991Z" fill="#F3F0E7"/>
<path d="M49.7496 85.5861C49.6134 85.7215 49.5829 85.7875 48.4646 88.3637C47.6122 90.3273 47.6115 90.0734 48.4742 91.4476C50.4545 94.6016 52.8014 97.3128 53.2993 97.0216C53.6486 96.8172 58.1253 92.1569 58.0432 92.0831C58.0065 92.0501 57.6289 91.8484 57.204 91.6347C55.2102 90.6317 52.5947 88.4162 51.0769 86.4445C50.3525 85.5035 50.0376 85.2999 49.7496 85.5861Z" fill="#F3F0E7"/>
<path d="M30.5066 108.892C29.954 112.352 29.6512 112.479 28.9634 112.239C31.5761 113.817 35.4685 115.527 39.8144 117.011L38.4056 116.413L38.3604 110.436C38.3197 105.057 38.344 104.428 38.6016 104.143C38.9309 103.78 39.0725 103.758 39.5328 104.005C39.8519 104.175 39.8648 104.431 39.8648 110.607V117.028C45.1434 118.825 51.475 120.252 58.3244 120.58C56.4931 118.921 53.7518 116.177 53.5808 115.715C53.5185 115.546 53.6842 114.367 53.9489 113.094C55.1862 107.144 56.564 99.8978 56.5762 99.2775C56.5836 98.8998 56.4166 98.209 56.2051 97.7423L55.8207 96.8937L54.7264 97.9784C53.1719 99.5191 53.0778 99.5014 50.9396 97.2678C49.7847 96.0614 48.7427 94.7342 47.7619 93.2208C46.0403 90.5641 46.2723 90.6491 43.425 91.6309C37.4109 93.7046 35.1113 95.1627 33.2397 98.0886C32.1233 99.8339 31.6608 101.662 30.5066 108.892Z" fill="#F3F0E7"/>
<path fill-rule="evenodd" clip-rule="evenodd" d="M66.2278 115.815C65.9009 116.437 63.2477 119.074 61.4806 120.651C70.8745 120.62 81.0558 118.409 90.7281 112.254C90.02 112.523 90.1937 113.181 88.7976 104.943C88.1545 101.148 87.9221 100.314 87.0508 98.6766C85.4112 95.5957 82.8041 93.8322 76.8051 91.7465C73.7201 90.6738 73.9141 90.6364 72.7159 92.5353C71.1188 95.0666 68.2689 98.4 67.2608 98.9159C66.6249 99.2414 66.3547 99.1108 65.0654 97.8543L64.0856 96.8992L63.8893 97.4016C63.1878 99.1959 63.1921 98.9786 63.7959 102.062C64.1063 103.646 64.4572 105.484 64.5758 106.145C64.6946 106.806 64.8893 107.771 65.0088 108.291C65.1282 108.81 65.3233 109.776 65.4422 110.437C65.5612 111.098 65.841 112.475 66.0639 113.498C66.4227 115.144 66.4416 115.409 66.2278 115.815ZM80.0369 110.696C80.0369 105.171 80.0712 104.332 80.3066 104.097C80.4551 103.948 80.6813 103.827 80.8094 103.827C81.5557 103.827 81.582 104.052 81.582 110.433V116.499L80.0369 117.026V110.696Z" fill="#F3F0E7"/>
</g>
<defs>
<clipPath id="clip0_9_358">
<rect width="120" height="120" rx="60" fill="white"/>
</clipPath>
</defs>
</svg>
